<svg width="30" height="29" viewBox="0 0 30 29" fill="none" xmlns="http://www.w3.org/2000/svg">
<path d="M21.75 0.500029C20.4662 0.509886 19.1995 0.794809 18.0351 1.3356C16.8707 1.87639 15.8358 2.66048 15 3.63503C14.1643 2.66048 13.1293 1.87639 11.965 1.3356C10.8006 0.794809 9.53382 0.509886 8.25003 0.500029C7.16365 0.489339 6.08605 0.695431 5.08029 1.10625C4.07452 1.51706 3.16079 2.12435 2.39257 2.89257C1.62435 3.66079 1.01706 4.57452 0.606246 5.58029C0.195431 6.58605 -0.0106615 7.66365 2.93913e-05 8.75003C2.93913e-05 14.42 5.10003 19.04 12.825 26.06L15 28.025L17.175 26.045C24.9 19.04 30 14.42 30 8.75003C30.0107 7.66365 29.8046 6.58605 29.3938 5.58029C28.983 4.57452 28.3757 3.66079 27.6075 2.89257C26.8393 2.12435 25.9255 1.51706 24.9198 1.10625C23.914 0.695431 22.8364 0.489339 21.75 0.500029ZM15.15 23.825L15 23.975L14.85 23.825C7.71003 17.36 3.00003 13.085 3.00003 8.75003C2.98317 8.05599 3.10744 7.36575 3.36531 6.72117C3.62318 6.07658 4.00927 5.49109 4.50018 5.00018C4.99109 4.50927 5.57658 4.12318 6.22117 3.86531C6.86575 3.60744 7.55599 3.48317 8.25003 3.50003C9.38927 3.50661 10.5019 3.8449 11.452 4.47357C12.4021 5.10223 13.1485 5.99405 13.6 7.04003C13.6 7.04003 14.444 8.06503 15.145 8.06503C15.846 8.06503 16.405 7.04003 16.405 7.04003C16.8522 5.99199 17.5969 5.09808 18.5469 4.46889C19.4969 3.8397 20.6106 3.50285 21.75 3.50003C22.4441 3.48317 23.1343 3.60744 23.7789 3.86531C24.4235 4.12318 25.009 4.50927 25.4999 5.00018C25.9908 5.49109 26.3769 6.07658 26.6347 6.72117C26.8926 7.36575 27.0169 8.05599 27 8.75003C27 13.085 22.29 17.36 15.15 23.825Z" fill="#613907"/>
</svg>
