<svg width="29" height="37" viewBox="0 0 29 37" fill="none" xmlns="http://www.w3.org/2000/svg">
<path d="M16.928 9.52344H1.69398C1.24553 9.52528 0.815981 9.70424 0.498881 10.0213C0.18178 10.3384 0.00281933 10.768 0.000976562 11.2164V34.9164C0.0033451 35.3645 0.182538 35.7936 0.499582 36.1102C0.816626 36.4269 1.24588 36.6056 1.69398 36.6074H16.928C17.3764 36.6056 17.806 36.4266 18.1231 36.1095C18.4402 35.7924 18.6191 35.3629 18.621 34.9144V11.2164C18.6191 10.768 18.4402 10.3384 18.1231 10.0213C17.806 9.70424 17.3764 9.52528 16.928 9.52344ZM9.31098 35.3844C9.0505 35.3844 8.79587 35.3072 8.57929 35.1625C8.36271 35.0178 8.19391 34.8121 8.09423 34.5714C7.99455 34.3308 7.96847 34.066 8.01928 33.8105C8.0701 33.555 8.19553 33.3204 8.37972 33.1362C8.5639 32.952 8.79857 32.8266 9.05404 32.7757C9.30952 32.7249 9.57432 32.751 9.81497 32.8507C10.0556 32.9504 10.2613 33.1192 10.406 33.3358C10.5507 33.5523 10.628 33.807 10.628 34.0674C10.628 34.4167 10.4892 34.7517 10.2422 34.9987C9.99525 35.2457 9.66027 35.3844 9.31098 35.3844ZM16.928 31.5284H1.69398V12.9084H16.928V31.5284Z" fill="#613907"/>
<path d="M14.083 6.43484C16.1217 6.40652 18.1059 7.09369 19.6905 8.37684C21.275 9.66 22.3597 11.458 22.7559 13.4581" stroke="#613907" stroke-width="3" stroke-linecap="round" stroke-linejoin="round"/>
<path d="M13.6492 2.46224C16.7342 2.33314 19.7602 3.33403 22.1598 5.27717C24.5594 7.2203 26.1676 9.97217 26.6827 13.0166" stroke="#613907" stroke-width="3" stroke-linecap="round" stroke-linejoin="round"/>
<path d="M14.4816 10.3888C15.4665 10.451 16.4077 10.8181 17.1747 11.4392C17.9417 12.0603 18.4964 12.9046 18.7621 13.8551" stroke="#613907" stroke-width="3" stroke-linecap="round" stroke-linejoin="round"/>
</svg>
